Coordinates
version=1
nRows=9
nColumns=36
inDegrees=yes

Units are S.I. units (second, meters, Newtons, ...)
If the header above contains a line with 'inDegrees', this indicates whether rotational values are in degrees (yes) or radians (no).

endheader
time	pelvis_tilt	pelvis_list	pelvis_rotation	pelvis_tx	pelvis_ty	pelvis_tz	hip_flexion_r	hip_adduction_r	hip_rotation_r	knee_angle_r	knee_angle_r_beta	ankle_angle_r	subtalar_angle_r	mtp_angle_r	hip_flexion_l	hip_adduction_l	hip_rotation_l	knee_angle_l	knee_angle_l_beta	ankle_angle_l	subtalar_angle_l	mtp_angle_l	lumbar_extension	lumbar_bending	lumbar_rotation	arm_flex_r	arm_add_r	arm_rot_r	elbow_flex_r	pro_sup_r	arm_flex_l	arm_add_l	arm_rot_l	elbow_flex_l	pro_sup_l
      2.80833330	    -19.59814014	      0.58025827	     -1.04510217	     -0.09902033	      0.91384806	     -0.06437602	     65.89284050	    -10.68850026	    -10.19220261	     50.30629669	      0.87801051	      6.30394835	     -0.15063741	     -7.49999987	     65.60608250	    -12.60267260	    -17.22893784	     48.34948093	      0.84385763	     12.34912253	     10.67452675	     -7.49999987	    -26.23638094	     -1.33599030	      2.21702721	     57.22100397	     -3.29828815	     19.20565783	    101.09952524	     86.59720190	     60.87651614	      2.34108813	     25.71289381	     93.76757612	     56.74813707
      2.81250000	    -19.38758752	      0.59775943	     -1.01636762	     -0.09402368	      0.90531538	     -0.06356986	     67.33150347	    -11.11145034	     -9.99402643	     53.55215671	      0.93466146	      8.04901765	     -0.60963754	     -7.49999987	     67.05696991	    -12.95449218	    -16.74391347	     51.11550462	      0.89213385	     11.43345102	     11.19661686	     -7.49999987	    -27.35384407	     -1.40227004	      2.18292299	     58.18962233	     -3.17696520	     19.12742641	    101.13394527	     86.65254308	     61.79675852	      2.54367136	     25.86950307	     93.98799645	     56.82065255
      2.81666670	    -19.36017664	      0.71457248	     -0.92714600	     -0.09129389	      0.89838676	     -0.05989560	     68.88273440	    -11.64266490	     -9.79700106	     56.72075851	      0.98996399	     10.07500987	      0.23227376	     -7.49999987	     68.56484880	    -13.38726868	    -16.34927743	     53.87301200	      0.94026144	     11.24437586	     11.70269500	     -7.49999987	    -28.31627282	     -1.69632453	      2.08288010	     59.12917082	     -3.02032686	     19.39293219	    100.93158431	     86.90135962	     62.52948966	      2.41136695	     26.21051569	     93.82462228	     57.06218711
      2.82083330	    -19.09856885	      0.75233936	     -0.95307908	     -0.08703483	      0.88657106	     -0.05976279	     70.19292880	    -11.98336872	     -9.37274791	     59.75148411	      1.04286013	     11.50035944	      0.14949036	     -7.49999987	     69.96996023	    -13.97279437	    -15.70381590	     56.93637487	      0.99372721	     11.76701532	     11.53498144	     -7.49999987	    -29.55275658	     -1.89566429	      1.99499552	     60.32217509	     -2.77026551	     19.40819420	    100.80556855	     86.69102256	     63.50978503	      2.53601945	     26.19671680	     93.65098175	     57.22711086
      2.82500000	    -18.92441820	      0.78613257	     -0.86622745	     -0.08602320	      0.87662815	     -0.05728447	     71.47034665	    -12.21905021	     -8.84928355	     62.56384623	      1.09194511	     12.82104950	      0.38042706	     -7.49999987	     71.48503280	    -14.48896985	    -15.09760958	     59.86227812	      1.04479385	     12.33956240	     11.50772932	     -7.49999987	    -30.71240737	     -2.21386391	      1.87016338	     61.32607086	     -2.63524449	     19.40999469	    100.94847904	     86.36338610	     64.58790051	      2.50095356	     26.34499959	     93.73905385	     57.71700421
      2.82916670	    -18.78716171	      0.73427208	     -0.84407098	     -0.08041061	      0.86184876	     -0.05473186	     72.92771649	    -12.39287905	     -8.42603592	     65.53165434	      1.14374313	     14.28694237	      0.45097426	     -7.49999987	     73.17358812	    -15.12984520	    -14.42470530	     63.03131060	      1.10010390	     13.21911123	     11.61552063	     -7.49999987	    -31.64339419	     -2.40804926	      1.79550816	     62.36641378	     -2.47634093	     19.49534104	    101.44866118	     87.01694895	     65.76231091	      2.49237743	     27.01181482	     94.10405651	     58.06500763
      2.83333330	    -18.60382726	      0.74456271	     -0.88065895	     -0.07605407	      0.85109465	     -0.05698264	     74.28896436	    -12.56143027	     -7.87061336	     68.35038976	      1.19293935	     15.37856433	      0.14848864	     -7.49999987	     74.55200001	    -15.47609863	    -13.76758089	     65.84946343	      1.14928995	     13.99776175	     11.30748783	     -7.49999987	    -32.57451821	     -2.52417847	      1.71401941	     63.48332063	     -2.22149595	     19.49320164	    101.63472019	     87.10996932	     66.90546889	      2.68052270	     26.99296431	     94.14188478	     58.18014041
      2.83750000	    -18.43151212	      0.76684268	     -0.90920995	     -0.07261432	      0.84274239	     -0.05854315	     75.44367167	    -12.77556820	     -7.36821266	     70.89555084	      1.23736079	     16.78278570	      0.77048380	     -7.49999987	     75.63530956	    -15.73008529	    -13.28241690	     68.27386788	      1.19160379	     14.96297555	     11.46155027	     -7.49999987	    -33.37745750	     -2.55211282	      1.66048198	     64.37976967	     -2.33726730	     19.66697883	    101.79856308	     87.55279107	     68.07916106	      2.49103297	     27.65530585	     94.50173921	     58.63429533
      2.84166670	    -18.21725114	      0.83779003	     -0.88577095	     -0.07097214	      0.82959722	     -0.05884279	     76.79594306	    -13.09538344	     -6.72672570	     73.51389034	      1.28305943	     17.70281838	      0.97081400	     -7.49999987	     76.89188374	    -15.74563141	    -12.67267418	     70.81166036	      1.23589662	     15.78800927	     11.31876899	     -7.49999987	    -34.25316152	     -2.52262614	      1.53255059	     65.58181632	     -2.36122815	     19.81714310	    101.79664484	     87.66816224	     69.31705489	      2.40515213	     27.88133881	     94.74763070	     59.25221309
